---------------------------------------------------------------------------------

EXCLUSIVE DHAMAKA FROM Henry:

.................................................................................
Format                           : Matroska
File size                        : 398 MiB
Duration                         : 1h 48mn
Overall bit rate                 : 512 Kbps
Movie name                       : Break Ke Baad 2010 DVDScr x264 - Henry Kharay
Encoded date                     : UTC 2010-12-04 16:40:26
Writing application              : mkvmerge v4.2.0 ('No Talking') built on Jul 28 2010 18:38:23
Writing library                  : libebml v1.0.0 + libmatroska v1.0.0
---------------------------------------------------------------------------------
Video
ID                               : 1
Format                           : AVC
Format/Info                      : Advanced Video Codec
Format profile                   : High@L2.2
Format settings, CABAC           : Yes
Format settings, ReFrames        : 4 frames
Muxing mode                      : Container profile=Unknown@2.2
Codec ID                         : V_MPEG4/ISO/AVC
Duration                         : 1h 48mn
Bit rate                         : 422 Kbps
Width                            : 688 pixels
Height                           : 304 pixels
Display aspect ratio             : 2.25:1
Frame rate                       : 23.976 fps
Color space                      : YUV
Chroma subsampling               : 4:2:0
Bit depth                        : 8 bits
Scan type                        : Progressive
Bits/(Pixel*Frame)               : 0.084
Stream size                      : 321 MiB (81%)
Writing library                  : x264 
-----------------------------------------------------------------------------
Audio
ID                               : 2
Format                           : MPEG Audio
Format version                   : Version 2
Format profile                   : Layer 3
Mode                             : Joint stereo
Mode extension                   : MS Stereo
Codec ID                         : A_MPEG/L3
Codec ID/Hint                    : MP3
Duration                         : 1h 48mn
Bit rate mode                    : Variable
Bit rate                         : 88.5 Kbps
Nominal bit rate                 : 128 Kbps
Channel(s)                       : 2 channels
Sampling rate                    : 24.0 KHz
Stream size                      : 68.7 MiB (17%)
Writing library                  : LAME3.98r
Encoding settings                : -m j -V 4 -q 2 -lowpass 12 --abr 128[/COLOR]

Screens 
http://img15.imageshack.us/img15/5031/breakkebaad2010x2641cdd.jpg 
http://img834.imageshack.us/img834/5031/breakkebaad2010x2641cdd.jpg 
http://img535.imageshack.us/img535/5031/breakkebaad2010x2641cdd.jpg 
http://img822.imageshack.us/img822/5031/breakkebaad2010x2641cdd.jpg 
http://img830.imageshack.us/img830/5031/breakkebaad2010x2641cdd.jpg 
http://img404.imageshack.us/img404/5031/breakkebaad2010x2641cdd.jpg 
http://img528.imageshack.us/img528/5031/breakkebaad2010x2641cdd.jpg 
http://img411.imageshack.us/img411/5031/breakkebaad2010x2641cdd.jpg

Sample Include In Torrent 

keep Seeding
thnx